<svg width="40" height="40" viewBox="0 0 40 40" fill="none" xmlns="http://www.w3.org/2000/svg">
<path d="M8.46849 2.5C8.21849 2.60156 8.04661 2.89062 8.04661 3.21094C8.04661 3.45312 8.21067 3.71094 9.21849 5.04688L10.3825 6.60156L10.3904 19.9844V33.3672L8.89036 34.8281C8.07005 35.6328 7.3513 36.3984 7.29661 36.5234C7.1638 36.8438 7.24192 37.1562 7.51536 37.3828L7.74974 37.5781L19.656 37.5625L31.5622 37.5391L33.7497 35.3516L35.9372 33.1562V32.7969C35.9372 32.4922 35.8982 32.4062 35.695 32.2344L35.4529 32.0312H26.906H18.3591V17.4688V2.89844L18.1716 2.67969L17.9841 2.46094L13.3044 2.44531C10.7341 2.4375 8.55442 2.46094 8.46849 2.5Z" fill="white"/>
<path d="M20 6.39062V7.1875H20.4609C21.6172 7.1875 23.7891 7.60938 25 8.07031C28.5547 9.42969 31.375 12.0156 33.0078 15.4062C35.1875 19.9453 34.8047 25.3359 32 29.5234L31.4219 30.3984L32.3984 30.375L33.3828 30.3516L33.8125 29.6094C34.8594 27.8047 35.5 25.9375 35.8203 23.7891C35.9844 22.6641 35.9844 20.5625 35.8203 19.3828C34.7578 11.8438 28.5078 6.09375 20.8828 5.64844L20 5.60156V6.39062Z" fill="white"/>
<path d="M8.16403 10.8906C6.15621 13.125 4.79684 15.8906 4.25778 18.8281C4.05465 19.9453 4.00778 22.5859 4.17965 23.7813C4.61715 26.9609 6.12496 30.1406 8.26559 32.4219L8.74215 32.9297L8.74996 31.7656V30.6016L8.36715 30.0859C6.99996 28.2344 6.13278 26.1328 5.73434 23.7109C5.54684 22.5625 5.56246 20.4688 5.7734 19.2734C6.17184 17.0313 6.98434 15.0469 8.22653 13.3203L8.75778 12.5781L8.73434 11.4297L8.7109 10.2813L8.16403 10.8906Z" fill="white"/>
</svg>
