<svg width="40" height="40" viewBox="0 0 40 40" fill="none" xmlns="http://www.w3.org/2000/svg">
<path fill-rule="evenodd" clip-rule="evenodd" d="M6.13655 17.28L4.90758 7.27332C4.9975 7.21212 5.1174 7.15092 5.20733 7.08971C5.89675 6.72249 6.94588 6.20227 8.29475 5.71264C11.0225 4.70279 14.9792 3.69294 19.955 3.69294C24.9309 3.69294 28.9176 4.70279 31.6153 5.71264C32.9642 6.20227 34.0133 6.72249 34.7027 7.08971C34.8226 7.15092 34.9126 7.21212 35.0025 7.27332L33.7735 17.28C32.6345 17.9227 30.8959 19.2997 30.8959 22.1151C30.8959 23.7676 31.5554 25.0528 32.2148 25.8485C32.4246 26.1239 32.6345 26.3381 32.8143 26.5217L31.7952 32.2748L19.985 36.1L8.1149 32.336L7.09575 26.5523C7.2756 26.3687 7.48543 26.1545 7.69525 25.8791C8.32473 25.0528 9.01415 23.7982 9.01415 22.1457C9.04413 19.3303 7.2756 17.9533 6.13655 17.28ZM37.2806 5.46783L37.2506 5.43723C37.2206 5.43723 37.2206 5.40663 37.1907 5.40663C37.1307 5.37602 37.0408 5.31482 36.9509 5.25362C36.741 5.13121 36.4413 4.9476 36.0516 4.73339C35.2723 4.30497 34.1032 3.75414 32.6345 3.20331C29.6669 2.10166 25.3805 1 20.015 1C14.6495 1 10.363 2.10166 7.3955 3.20331C5.92673 3.75414 4.7577 4.30497 3.97835 4.73339C3.58868 4.9476 3.28893 5.13121 3.0791 5.25362C2.9592 5.31482 2.89925 5.37602 2.8393 5.40663C2.80933 5.43723 2.77935 5.43723 2.77935 5.43723H2.74938L2 5.92685L3.61865 19.0549L4.2781 19.3915C5.17735 19.82 6.3164 20.432 6.3164 22.1151C6.3164 23.0025 5.9567 23.7064 5.597 24.1654C5.41715 24.4102 5.20733 24.5938 5.08743 24.7162C5.02748 24.7774 4.96753 24.808 4.93755 24.8386L4.90758 24.8692L4.1582 25.3588L5.74688 34.4169L19.985 38.9459L34.2531 34.4169L35.8418 25.3588L35.0924 24.8692C35.0924 24.8692 35.0924 24.8692 35.0624 24.8386C35.0325 24.808 34.9725 24.7774 34.9126 24.7162C34.7627 24.5938 34.5828 24.4102 34.403 24.1654C34.0133 23.6758 33.6836 23.0025 33.6836 22.1151C33.6836 20.432 34.8226 19.82 35.7219 19.3915L36.3813 19.0549L38 5.92685L37.2806 5.46783ZM14.9792 10.0887L13.6903 7.73235H21.6936C25.6203 7.73235 26.7294 10.8537 25.8301 14.4953C25.3505 16.515 23.9117 18.6877 23.1923 19.4833C24.3314 22.6047 26.6395 29.031 26.9392 29.6125C27.209 30.1939 27.8085 30.7447 28.0783 30.9589H22.3231C22.9226 30.1327 23.1324 29.3983 23.1324 29.1228C23.1324 28.9086 21.3639 24.1654 20.4946 21.8091L18.3963 23.4922V29.184L19.5354 30.9283H13.9001L14.9792 29.184V10.0887ZM18.4263 19.6976V10.3335C18.6062 10.3335 18.816 10.3335 18.9958 10.3335C19.8951 10.3029 20.7943 10.3029 21.4838 10.7619C22.3231 11.3127 22.7127 12.6898 22.443 14.1587C21.9334 16.8822 19.955 18.5041 18.7261 19.4527C18.6361 19.5446 18.5462 19.6364 18.4263 19.6976Z" fill="white"/>
</svg>
