<svg width="15" height="17" viewBox="0 0 15 17" fill="none" xmlns="http://www.w3.org/2000/svg">
<path d="M1.89575 16.427C1.62576 16.4265 1.36056 16.3557 1.12622 16.2216C0.598546 15.9227 0.270508 15.3423 0.270508 14.7123V1.96197C0.270508 1.33017 0.598546 0.751566 1.12622 0.452594C1.36614 0.314731 1.63869 0.243834 1.91538 0.247315C2.19208 0.250795 2.46276 0.328525 2.69913 0.472379L13.5978 6.99526C13.825 7.13766 14.0122 7.33541 14.142 7.56996C14.2718 7.80451 14.3399 8.06818 14.3399 8.33624C14.3399 8.6043 14.2718 8.86796 14.142 9.10252C14.0122 9.33707 13.825 9.53482 13.5978 9.67722L2.69737 16.2019C2.45548 16.3481 2.17841 16.4259 1.89575 16.427Z" fill="white"/>
</svg>
