<svg width="40" height="40" viewBox="0 0 40 40" fill="none" xmlns="http://www.w3.org/2000/svg">
<path fill-rule="evenodd" clip-rule="evenodd" d="M3.80046 23.6C4.07193 23.87 4.61485 24.23 5.51972 24.77V28.01L16.3782 34.31V32.78C19.6357 34.22 22.1694 35.12 23.9791 35.39H24.0696L19.4548 38L3.80046 28.91V23.6ZM19.4548 2L35.1091 11V24.68C36.6473 25.76 37.9142 27.11 39 28.73C38.7285 28.64 38.1856 28.37 37.3712 28.01C38.3666 30.26 38.5476 33.68 34.8376 34.49C25.9698 36.56 14.3875 30.8 10.0441 27.92C12.3063 28.82 14.3875 29.63 16.3782 30.26V28.82C14.297 28.1 10.6775 26.66 6.78654 24.05C3.16705 21.62 0.361949 18.65 0 18.11C0.633411 18.29 1.08585 18.38 1.53828 18.38C0.180975 15.95 1.62877 13.34 3.89095 12.35V11L19.4548 2ZM19.4548 3.89L5.51972 11.9V18.38C4.88631 17.84 3.98144 16.31 3.80046 15.41C3.16705 15.86 3.07657 16.76 3.43851 17.75C5.06728 21.89 11.9443 26.3 16.2877 28.64V17.66H9.50116L7.14849 12.35H31.761L29.4084 17.75H22.6218V31.88C24.6125 32.24 26.5128 32.51 28.232 32.6C35.7425 32.96 36.2854 30.8 35.0186 29L30.6752 31.52C29.4988 31.61 28.413 31.61 27.4176 31.43L33.3898 28.01V11.9L19.4548 3.89Z" fill="white"/>
</svg>
