<svg width="40" height="40" viewBox="0 0 40 40" fill="none" xmlns="http://www.w3.org/2000/svg">
<path d="M39 18.9979V4.23913C39 4.01148 38.7151 3.91663 38.5632 4.08736L22.4213 24.2337C22.2884 24.3855 22.4023 24.6321 22.6112 24.6321H34.2714C34.5942 24.6321 34.8791 24.4803 35.069 24.2337L38.7531 19.6429C38.9051 19.4722 39 19.2445 39 18.9979ZM1.24688 19.6619L13.3628 34.8001C13.5527 35.0467 13.8566 35.1795 14.1794 35.1795H25.8396C26.0485 35.1795 26.1624 34.9518 26.0295 34.8001L1.43678 4.10634C1.28486 3.9356 1 4.03046 1 4.2581V19.0169C1.01899 19.2445 1.09495 19.4722 1.24688 19.6619Z" fill="white"/>
</svg>
