<?xml version="1.0" standalone="no"?>
<!DOCTYPE svg PUBLIC "-//W3C//DTD SVG 20010904//EN"
 "http://www.w3.org/TR/2001/REC-SVG-20010904/DTD/svg10.dtd">
<svg version="1.0" xmlns="http://www.w3.org/2000/svg"
 width="260.000000pt" height="260.000000pt" viewBox="0 0 260.000000 260.000000"
 preserveAspectRatio="xMidYMid meet">
<metadata>
Created by potrace 1.14, written by Peter Selinger 2001-2017
</metadata>
<g transform="translate(0.000000,260.000000) scale(0.100000,-0.100000)"
fill="#000000" stroke="none">
<path d="M1055 2580 c-473 -95 -856 -435 -998 -886 -79 -252 -76 -558 7 -807
132 -392 452 -707 842 -830 252 -79 558 -76 807 7 392 132 707 452 830 842 79
252 76 558 -7 807 -132 392 -452 707 -842 830 -187 59 -454 74 -639 37z m893
-1186 l2 -400 -125 -15 -124 -15 -6 26 c-3 14 -26 142 -51 285 -25 143 -47
261 -49 263 -4 4 -55 -21 -55 -27 0 -3 11 -130 25 -281 13 -151 23 -276 21
-277 -5 -5 -239 -33 -243 -29 -4 3 -93 498 -93 515 0 5 -13 4 -31 -2 -30 -12
-31 -14 -25 -57 14 -118 38 -449 34 -462 -4 -10 -39 -18 -118 -27 -61 -7 -114
-11 -116 -8 -3 3 -24 108 -46 234 -22 125 -42 229 -43 231 -1 2 -14 0 -29 -4
-32 -8 -32 2 -6 -268 11 -116 19 -211 17 -212 -1 -1 -33 -4 -71 -6 l-70 -3
-93 350 c-51 193 -92 357 -93 366 0 11 114 69 388 195 l387 180 305 -76 305
-76 3 -400z m2 -619 c0 -98 -2 -115 -16 -115 -19 0 -557 90 -561 94 -2 1 -6
17 -9 34 -5 27 -3 32 12 32 11 1 138 16 284 34 146 19 271 34 278 35 9 1 12
-28 12 -114z"/>
</g>
</svg>
