<svg width="178" height="50" viewBox="0 0 178 50" fill="none" xmlns="http://www.w3.org/2000/svg">
<path d="M29.8871 0.0838386L0 13.9166L7.46129 42.2527L13.1201 41.5401L11.5692 23.7252L13.4136 22.8869L16.6412 41.079L26.3241 39.9053L24.6055 20.2461L26.4499 19.4077L29.9709 39.4442L39.7796 38.2286L37.8933 16.6831L39.7377 15.8448L43.5941 37.7675L53.277 36.5939V5.91035L29.8871 0.0838386ZM30.5997 43.091L31.1027 45.8995L53.3189 49.5882V40.2826L30.5997 43.091ZM74.2776 37.2645V41.079H78.9723C78.9723 41.8335 78.7627 42.63 78.3855 43.3006C77.9663 43.9713 77.3794 44.5162 76.6668 44.8516C75.8285 45.2288 74.9063 45.4384 73.9841 45.3965C72.9362 45.4384 71.8463 45.145 70.9661 44.5582C70.0858 43.9294 69.4151 43.091 68.996 42.085C68.493 40.8275 68.2834 39.5281 68.3253 38.1867C68.2834 36.8873 68.5349 35.5459 69.0379 34.3303C69.4571 33.3662 70.1277 32.5279 71.008 31.8991C71.8883 31.3123 72.9362 31.0188 73.9841 31.0608C74.5291 31.0608 75.074 31.1446 75.6189 31.2704C76.08 31.3961 76.5411 31.6057 76.9184 31.8991C77.2956 32.1925 77.6309 32.5279 77.8824 32.9051C78.1339 33.3243 78.3435 33.7854 78.4693 34.2465H83.709C83.5832 33.1566 83.206 32.0668 82.661 31.1446C82.1161 30.1805 81.4035 29.3841 80.5232 28.7134C79.6011 28.0008 78.595 27.4559 77.5471 27.1205C76.3734 26.7433 75.1578 26.5337 73.9003 26.5337C72.4332 26.5337 71.008 26.7852 69.6666 27.3301C68.3672 27.875 67.1935 28.6296 66.2294 29.6356C65.2234 30.6835 64.427 31.941 63.924 33.3243C63.3371 34.9172 63.0437 36.5939 63.0856 38.3125C63.0856 40.7018 63.5467 42.7976 64.4689 44.5582C65.3492 46.2348 66.6905 47.66 68.3253 48.5822C71.6787 50.3847 75.7447 50.4685 79.1819 48.8337C80.649 48.0792 81.8646 46.9475 82.7029 45.5223C83.5832 44.0552 84.0024 42.3365 84.0024 40.3245V37.3903L74.2776 37.2645ZM139.333 49.5882V26.7852H154.968V31.0189H144.489V36.0909H152.956V40.3245H144.489V45.3965H154.968V49.6302H139.333V49.5882ZM170.143 33.492C170.101 32.6955 169.723 31.9829 169.095 31.4799C168.466 31.0188 167.586 30.7673 166.454 30.7673C165.825 30.7673 165.154 30.8512 164.568 31.0608C164.106 31.2284 163.687 31.5219 163.394 31.8991C163.142 32.2345 162.975 32.6536 162.975 33.1147C162.975 33.4501 163.059 33.7854 163.226 34.1207C163.394 34.4142 163.645 34.6657 163.939 34.8752C164.274 35.0848 164.651 35.2944 165.029 35.4202C165.49 35.5878 165.951 35.7136 166.454 35.7974L168.466 36.2585C169.43 36.4681 170.394 36.8034 171.316 37.1807C172.113 37.558 172.867 38.0191 173.496 38.6059C174.083 39.1508 174.544 39.8215 174.879 40.5341C175.215 41.3305 175.382 42.2108 175.382 43.0491C175.424 44.3486 175.047 45.648 174.334 46.6959C173.58 47.7439 172.49 48.5822 171.274 49.0852C169.723 49.6721 168.089 49.9655 166.454 49.9236C164.777 49.9655 163.1 49.6721 161.549 49.0852C160.25 48.5822 159.118 47.66 158.322 46.5283C157.567 45.3965 157.148 43.9713 157.106 42.2527H162.094C162.136 43.5941 162.975 44.8097 164.232 45.2708C164.945 45.5223 165.699 45.648 166.412 45.648C167.083 45.648 167.795 45.5642 168.424 45.3127C168.927 45.145 169.388 44.8097 169.723 44.3905C170.017 44.0132 170.184 43.5102 170.184 43.0491C170.184 42.588 170.017 42.1689 169.765 41.8335C169.43 41.4563 168.969 41.1628 168.508 40.9952C167.837 40.7018 167.124 40.4922 166.412 40.3664L163.981 39.7796C162.053 39.3185 160.502 38.6059 159.37 37.5999C158.238 36.5939 157.693 35.2525 157.693 33.5339C157.651 32.2345 158.07 30.935 158.825 29.8452C159.621 28.7553 160.711 27.917 161.969 27.372C163.394 26.7433 164.945 26.4499 166.496 26.4918C168.047 26.4499 169.598 26.7852 171.023 27.372C172.238 27.917 173.286 28.7553 173.999 29.8452C174.712 30.935 175.089 32.1925 175.089 33.5339L170.143 33.492ZM135.686 49.5882H130.573V32.2345H130.028L124.872 49.5882H119.758L114.728 32.2345H114.057V49.5882H108.943V26.7852H117.62L122.021 42.085H122.524L126.926 26.7852H135.603V49.5882H135.686ZM100.979 49.5882H106.512L98.8411 26.7852H91.8409L84.17 49.5882H89.7031L91.1702 44.5582H99.4699L100.979 49.5882ZM92.3858 40.6179L94.859 32.2764H95.8231L98.3381 40.6179H92.3858ZM176.64 29.2164C176.179 29.2164 175.718 28.923 175.55 28.4619C175.424 28.1685 175.424 27.8331 175.55 27.5397C175.634 27.414 175.718 27.2882 175.801 27.1625C175.927 27.0367 176.053 26.9529 176.179 26.9109C176.472 26.7852 176.807 26.7852 177.101 26.9109C177.227 26.9948 177.394 27.0786 177.478 27.1625C177.604 27.2882 177.688 27.414 177.73 27.5397C177.855 27.8331 177.855 28.1685 177.73 28.4619C177.688 28.5876 177.604 28.7553 177.478 28.8391C177.352 28.9649 177.227 29.0487 177.101 29.0907C176.975 29.1745 176.807 29.2164 176.64 29.2164ZM176.64 28.8811C176.807 28.8811 176.975 28.8391 177.101 28.7553C177.227 28.6715 177.352 28.5876 177.436 28.4619C177.604 28.2104 177.604 27.8331 177.436 27.5816C177.352 27.4559 177.269 27.372 177.101 27.2882C176.807 27.1205 176.472 27.1205 176.221 27.2882C176.095 27.372 176.011 27.4559 175.927 27.5816C175.759 27.875 175.759 28.2104 175.927 28.4619C176.011 28.5876 176.095 28.6715 176.221 28.7553C176.346 28.8391 176.514 28.8811 176.64 28.8811ZM176.221 28.5038V27.372H176.766C176.849 27.372 176.891 27.372 176.975 27.414C177.059 27.4559 177.101 27.4978 177.101 27.5397C177.143 27.5816 177.143 27.6655 177.143 27.7493C177.143 27.8331 177.143 27.875 177.101 27.9589C177.059 28.0008 177.017 28.0427 176.975 28.0846C176.891 28.1266 176.849 28.1266 176.766 28.1266H176.388V27.917H176.682C176.724 27.917 176.765 27.917 176.807 27.8751C176.849 27.8331 176.849 27.7912 176.849 27.7493C176.849 27.7074 176.807 27.6655 176.807 27.6235C176.765 27.5816 176.724 27.5816 176.682 27.5816H176.514V28.4619H176.221V28.5038ZM176.933 28.0008L177.185 28.5038H176.849L176.64 28.0008H176.933ZM85.4276 0.293425H90.5834V23.0965H85.4276V0.293425ZM115.105 11.7369C115.105 14.2519 114.644 16.3478 113.68 18.1083C112.8 19.785 111.458 21.1683 109.823 22.0905C106.386 23.9348 102.278 23.9348 98.8411 22.0905C97.2063 21.1683 95.865 19.785 94.9847 18.1083C94.0206 16.3478 93.5595 14.2519 93.5595 11.7369C93.5595 9.22182 94.0206 7.12595 94.9847 5.36542C95.865 3.68873 97.2063 2.30545 98.8411 1.38327C102.278 -0.461091 106.386 -0.461091 109.823 1.38327C111.458 2.30545 112.8 3.68873 113.68 5.36542C114.602 7.08403 115.063 9.22182 115.105 11.7369ZM109.823 11.7369C109.865 10.3955 109.656 9.05415 109.153 7.79663C108.776 6.83253 108.105 5.99418 107.225 5.36542C105.422 4.23365 103.117 4.23365 101.356 5.36542C100.476 5.95227 99.8052 6.79061 99.428 7.79663C98.5058 10.3536 98.5058 13.1201 99.428 15.6352C99.8052 16.5993 100.476 17.4795 101.356 18.0664C103.159 19.1562 105.422 19.1562 107.225 18.0664C108.105 17.4795 108.734 16.5993 109.153 15.6352C109.656 14.4196 109.865 13.0782 109.823 11.7369ZM74.6129 15.1741L77.2537 23.1384H82.9125L79.9783 14.5453H75.9962L75.7447 13.8327C76.4992 13.6651 77.7986 13.4555 78.9723 12.659C80.6071 11.5273 81.6131 9.68291 81.6131 7.7128C81.655 6.37144 81.3197 5.03009 80.649 3.8564C79.9783 2.72463 78.9723 1.80245 77.7986 1.25753C76.4153 0.628766 74.9063 0.293422 73.3554 0.335339H64.1336V23.1384H69.2894V15.1741H74.6129ZM74.4871 10.4374C73.7746 10.6889 73.02 10.8147 72.2655 10.8147H69.2475V4.48516H72.2236C72.9781 4.44324 73.7326 4.61091 74.4452 4.86242C74.9902 5.072 75.4512 5.49117 75.7866 5.99418C76.1219 6.49719 76.2477 7.12595 76.2477 7.7128C76.2896 8.29964 76.1219 8.88648 75.7866 9.38949C75.5351 9.8925 75.0321 10.2698 74.4871 10.4374ZM115.566 0.293425V4.52707H124.411L124.662 5.28159C123.908 5.44926 122.65 5.65884 121.518 6.41336V23.1384H126.632V4.52707H132.585V0.293425H115.566Z" fill="#EB0029"/>
</svg>
